<svg width="22" height="22" viewBox="0 0 22 22" fill="none" xmlns="http://www.w3.org/2000/svg">
<path fill-rule="evenodd" clip-rule="evenodd" d="M1.83341 11C1.83341 5.93741 5.93747 1.83335 11.0001 1.83335C16.0627 1.83335 20.1668 5.93741 20.1668 11C20.1668 16.0626 16.0627 20.1667 11.0001 20.1667C5.93747 20.1667 1.83341 16.0626 1.83341 11ZM11.0001 0.166687C5.017 0.166687 0.166748 5.01694 0.166748 11C0.166748 16.9831 5.017 21.8334 11.0001 21.8334C16.9832 21.8334 21.8334 16.9831 21.8334 11C21.8334 5.01694 16.9832 0.166687 11.0001 0.166687ZM10.9302 14.6944L16.7197 8.69439L15.2805 7.30565L10.1149 12.6591L6.61377 9.93775L5.38639 11.5168L9.59692 14.7896L10.3063 15.341L10.9302 14.6944Z" fill="#2B9B5B"/>
</svg>
